<svg width="330" height="59" viewBox="0 0 330 59" fill="none" xmlns="http://www.w3.org/2000/svg">
<path d="M17.386 8.176V39.024H25.642V46H0.874V39.024H9.13V8.176H0.874V1.2H25.642V8.176H17.386ZM52.89 11.44C57.1993 11.44 60.6553 12.6987 63.258 15.216C65.8607 17.7333 67.162 21.4667 67.162 26.416V46H59.162V27.44C59.162 24.4533 58.458 22.2133 57.05 20.72C55.642 19.184 53.6367 18.416 51.034 18.416C48.09 18.416 45.7647 19.312 44.058 21.104C42.3513 22.8533 41.498 25.392 41.498 28.72V46H33.498V11.824H41.114V16.24C42.4367 14.6613 44.1007 13.4667 46.106 12.656C48.1113 11.8453 50.3727 11.44 52.89 11.44ZM143.752 0.559998C149 0.559998 153.096 2.096 156.04 5.168C158.984 8.19733 160.456 12.5707 160.456 18.288V46H152.136V18.608C152.136 15.0667 151.197 12.4 149.32 10.608C147.485 8.77333 145.074 7.856 142.088 7.856C138.76 7.856 136.093 8.79467 134.088 10.672C132.125 12.5493 131.144 15.4293 131.144 19.312V46H122.824V18.608C122.824 15.024 121.949 12.336 120.2 10.544C118.493 8.752 116.146 7.856 113.16 7.856C109.789 7.856 107.08 8.816 105.032 10.736C103.026 12.6133 102.024 15.472 102.024 19.312V46H93.7035V1.2H101.768V7.088C103.133 4.99733 104.989 3.39733 107.336 2.288C109.682 1.136 112.392 0.559998 115.464 0.559998C118.621 0.559998 121.373 1.15733 123.72 2.352C126.066 3.54666 127.837 5.232 129.032 7.408C130.525 5.232 132.552 3.54666 135.112 2.352C137.714 1.15733 140.594 0.559998 143.752 0.559998ZM186.671 46.448C183.215 46.448 180.1 45.7013 177.327 44.208C174.553 42.7147 172.377 40.6453 170.799 38C169.263 35.312 168.495 32.2827 168.495 28.912C168.495 25.5413 169.263 22.5333 170.799 19.888C172.377 17.2427 174.553 15.1733 177.327 13.68C180.1 12.1867 183.215 11.44 186.671 11.44C190.169 11.44 193.305 12.1867 196.079 13.68C198.852 15.1733 201.007 17.2427 202.543 19.888C204.121 22.5333 204.911 25.5413 204.911 28.912C204.911 32.2827 204.121 35.312 202.543 38C201.007 40.6453 198.852 42.7147 196.079 44.208C193.305 45.7013 190.169 46.448 186.671 46.448ZM186.671 39.6C189.615 39.6 192.047 38.6187 193.967 36.656C195.887 34.6933 196.847 32.112 196.847 28.912C196.847 25.712 195.887 23.1307 193.967 21.168C192.047 19.2053 189.615 18.224 186.671 18.224C183.727 18.224 181.295 19.2053 179.375 21.168C177.497 23.1307 176.559 25.712 176.559 28.912C176.559 32.112 177.497 34.6933 179.375 36.656C181.295 38.6187 183.727 39.6 186.671 39.6ZM231.953 11.44C236.262 11.44 239.718 12.6987 242.321 15.216C244.923 17.7333 246.225 21.4667 246.225 26.416V46H238.225V27.44C238.225 24.4533 237.521 22.2133 236.113 20.72C234.705 19.184 232.699 18.416 230.097 18.416C227.153 18.416 224.827 19.312 223.121 21.104C221.414 22.8533 220.561 25.392 220.561 28.72V46H212.561V11.824H220.177V16.24C221.499 14.6613 223.163 13.4667 225.169 12.656C227.174 11.8453 229.435 11.44 231.953 11.44ZM272.942 39.664C276.654 39.664 279.747 38.4267 282.222 35.952L286.446 40.88C284.952 42.7147 283.032 44.1013 280.686 45.04C278.339 45.9787 275.694 46.448 272.75 46.448C268.995 46.448 265.688 45.7013 262.83 44.208C259.971 42.7147 257.752 40.6453 256.174 38C254.638 35.312 253.87 32.2827 253.87 28.912C253.87 25.584 254.616 22.5973 256.11 19.952C257.646 17.264 259.736 15.1733 262.382 13.68C265.07 12.1867 268.099 11.44 271.47 11.44C274.67 11.44 277.571 12.144 280.174 13.552C282.819 14.9173 284.91 16.9013 286.446 19.504C287.982 22.064 288.75 25.072 288.75 28.528L262.574 33.648C263.384 35.6107 264.686 37.104 266.478 38.128C268.27 39.152 270.424 39.664 272.942 39.664ZM271.47 17.84C268.526 17.84 266.136 18.8 264.302 20.72C262.51 22.64 261.614 25.2213 261.614 28.464V28.528L280.942 24.816C280.387 22.7253 279.256 21.04 277.55 19.76C275.886 18.48 273.859 17.84 271.47 17.84ZM329.524 11.824V40.816C329.524 52.848 323.614 58.864 311.796 58.864C308.681 58.864 305.694 58.4373 302.836 57.584C300.02 56.7733 297.694 55.5787 295.86 54L299.444 47.984C300.894 49.2213 302.665 50.2027 304.756 50.928C306.846 51.6533 309.044 52.016 311.348 52.016C314.846 52.016 317.406 51.1627 319.028 49.456C320.692 47.792 321.524 45.2107 321.524 41.712V40.112C320.244 41.52 318.686 42.608 316.852 43.376C315.017 44.1013 313.033 44.464 310.9 44.464C306.334 44.464 302.729 43.2053 300.084 40.688C297.481 38.1707 296.18 34.3947 296.18 29.36V11.824H304.18V28.336C304.18 31.3653 304.862 33.648 306.228 35.184C307.636 36.6773 309.62 37.424 312.18 37.424C315.038 37.424 317.3 36.5493 318.964 34.8C320.67 33.0507 321.524 30.512 321.524 27.184V11.824H329.524Z" fill="#EFEFEF"/>
<path d="M79.8705 46.448C78.4198 46.448 77.1825 45.9573 76.1585 44.976C75.1345 43.952 74.6225 42.672 74.6225 41.136C74.6225 39.5573 75.1132 38.2773 76.0945 37.296C77.1185 36.3147 78.3772 35.824 79.8705 35.824C81.3638 35.824 82.6012 36.3147 83.5825 37.296C84.6065 38.2773 85.1185 39.5573 85.1185 41.136C85.1185 42.672 84.6065 43.952 83.5825 44.976C82.5585 45.9573 81.3212 46.448 79.8705 46.448Z" fill="#5DD470"/>
</svg>
